<?xml version="1.0" encoding="UTF-8"?>
<svg width="56px" height="56px" viewBox="0 0 56 56" version="1.1" xmlns="http://www.w3.org/2000/svg" xmlns:xlink="http://www.w3.org/1999/xlink">
    <title>订单量</title>
    <g id="页面-1" stroke="none" stroke-width="1" fill="none" fill-rule="evenodd">
        <g id="首页" transform="translate(-436.000000, -336.000000)">
            <g id="订单量" transform="translate(436.000000, 336.000000)">
                <circle id="椭圆形" fill="#EBF5FF" cx="28" cy="28" r="28"></circle>
                <g id="订单_order" transform="translate(14.000000, 14.000000)">
                    <rect id="矩形" fill-opacity="0.01" fill="#FFFFFF" fill-rule="nonzero" x="0" y="0" width="28" height="28"></rect>
                    <g id="编组-4" transform="translate(4.500000, 3.000000)" stroke="#1A91FF" stroke-width="2">
                        <path d="M2,2 L17,2 C18.1045695,2 19,2.8954305 19,4 L19,20 C19,21.1045695 18.1045695,22 17,22 L2,22 C0.8954305,22 1.3527075e-16,21.1045695 0,20 L0,4 C-1.3527075e-16,2.8954305 0.8954305,2 2,2 Z" id="矩形"></path>
                        <rect id="矩形" fill="#E6F3FF" stroke-linecap="round" stroke-linejoin="round" x="4.5" y="0" width="10" height="3.5" rx="1.75"></rect>
                        <g id="编组-5" transform="translate(6.000000, 8.870000)" stroke-linecap="round" stroke-linejoin="round">
                            <line x1="-4.54830618e-13" y1="0.5" x2="7" y2="0.5" id="路径-4"></line>
                            <line x1="-4.54830618e-13" y1="6.5" x2="7" y2="6.5" id="路径-4备份"></line>
                        </g>
                    </g>
                </g>
            </g>
        </g>
    </g>
</svg>