<?xml version="1.0" encoding="UTF-8"?>
<svg width="56px" height="56px" viewBox="0 0 56 56" version="1.1" xmlns="http://www.w3.org/2000/svg" xmlns:xlink="http://www.w3.org/1999/xlink">
    <title>请求量</title>
    <g id="页面-1" stroke="none" stroke-width="1" fill="none" fill-rule="evenodd">
        <g id="首页" transform="translate(-716.000000, -336.000000)">
            <g id="请求量" transform="translate(716.000000, 336.000000)">
                <circle id="椭圆形" fill="#EBF5FF" cx="28" cy="28" r="28"></circle>
                <g id="订单_order" transform="translate(14.000000, 14.000000)">
                    <rect id="矩形" fill-opacity="0.01" fill="#FFFFFF" fill-rule="nonzero" x="0" y="0" width="28" height="28"></rect>
                    <g id="编组-4" transform="translate(3.500000, 4.000000)" stroke="#1A91FF" stroke-width="2">
                        <path d="M2,0 L19,0 C20.1045695,-2.02906125e-16 21,0.8954305 21,2 L21,18 C21,19.1045695 20.1045695,20 19,20 L2,20 C0.8954305,20 1.3527075e-16,19.1045695 0,18 L0,2 C-1.3527075e-16,0.8954305 0.8954305,2.02906125e-16 2,0 Z" id="矩形"></path>
                        <line x1="1" y1="5.5" x2="20.5532227" y2="5.5" id="路径-5"></line>
                        <g id="编组-6" transform="translate(3.500000, 10.378680)" stroke-linecap="round" stroke-linejoin="round">
                            <polyline id="路径" transform="translate(2.485281, 2.485281) scale(-1, 1) rotate(135.000000) translate(-2.485281, -2.485281) " points="4.24264069 0.727922061 4.24264069 4.24264069 0.727922061 4.24264069"></polyline>
                            <polyline id="路径备份" transform="translate(9.514719, 2.485281) scale(-1, 1) rotate(135.000000) translate(-9.514719, -2.485281) " points="11.2720779 0.727922061 11.2720779 4.24264069 7.75735931 4.24264069"></polyline>
                        </g>
                    </g>
                </g>
            </g>
        </g>
    </g>
</svg>