<?xml version="1.0" encoding="UTF-8"?>
<svg width="56px" height="56px" viewBox="0 0 56 56" version="1.1" xmlns="http://www.w3.org/2000/svg" xmlns:xlink="http://www.w3.org/1999/xlink">
    <title>门店故障数量</title>
    <g id="页面-1" stroke="none" stroke-width="1" fill="none" fill-rule="evenodd">
        <g id="首页" transform="translate(-436.000000, -174.000000)">
            <g id="门店故障数量" transform="translate(436.000000, 174.000000)">
                <circle id="椭圆形" fill="#EBF5FF" cx="28" cy="28" r="28"></circle>
                <g id="应用_application" transform="translate(14.000000, 14.000000)">
                    <rect id="矩形" fill-opacity="0.01" fill="#FFFFFF" fill-rule="nonzero" x="0" y="0" width="28" height="28"></rect>
                    <path d="M23.3562583,12.8333333 L23.3562583,22.5 C23.3562583,23.6045695 22.4608278,24.5 21.3562583,24.5 L6.6895975,24.5 C5.585028,24.5 4.6895975,23.6045695 4.6895975,22.5 L4.6895975,12.8333333 L4.6895975,12.8333333" id="路径" stroke="#1890FF" stroke-width="2" stroke-linecap="round" stroke-linejoin="round"></path>
                    <path d="M3.24189523,8.360375 C2.33762697,10.8360625 4.08184696,13.5 6.59215428,13.5 C8.55121003,13.5 10.1502257,11.8210625 10.1502257,9.75 C10.1502257,11.8210625 11.7383632,13.5 13.697419,13.5 L14.2994959,13.5 C16.2585517,13.5 17.8466892,11.8210625 17.8466892,9.75 C17.8466892,11.8210625 19.4463552,13.5 21.4054109,13.5 C23.9170603,13.5 25.6629297,10.8345 24.7579224,8.3576875 L23.2616456,4.26296106 C23.0942168,3.80477363 22.6583635,3.5 22.1705438,3.5 L5.82963739,3.5 C5.34176093,3.5 4.90586968,3.80484341 4.73848243,4.26310638 L3.24189523,8.360375 L3.24189523,8.360375 Z" id="路径" stroke="#1890FF" stroke-width="2" stroke-linejoin="round"></path>
                </g>
            </g>
        </g>
    </g>
</svg>